HIERARCHY
ROOT Hips
{
  OFFSET 49.4961 93.081 8.35351
  CHANNELS 6 Xposition Yposition Zposition Zrotation Xrotation Yrotation
  JOINT spine
  {
    OFFSET 0 7.80059 0.448573
    CHANNELS 3 Zrotation Xrotation Yrotation
    JOINT spine1
    {
      OFFSET 0 10.1364 0
      CHANNELS 3 Zrotation Xrotation Yrotation
      JOINT spine2
      {
        OFFSET 0 9.71251 0
        CHANNELS 3 Zrotation Xrotation Yrotation
        JOINT Neck
        {
          OFFSET 0 24.9361 1.18887
          CHANNELS 3 Zrotation Xrotation Yrotation
          JOINT Head
          {
            OFFSET 0 7.53384 0
            CHANNELS 3 Zrotation Xrotation Yrotation
            End Site
            {
              OFFSET 0 18.2361 -6.01402
            }
          }
        }
        JOINT RightShoulder
        {
          OFFSET -4.08965 10.4888 -0.569457
          CHANNELS 3 Zrotation Xrotation Yrotation
          JOINT RightArm
          {
            OFFSET 0 13.757 0
            CHANNELS 3 Zrotation Xrotation Yrotation
            JOINT RightArmRoll
            {
              OFFSET 0 6.94478 0
              CHANNELS 3 Zrotation Xrotation Yrotation
              JOINT RightForeArm
              {
                OFFSET 0 20.2277 0
                CHANNELS 3 Zrotation Xrotation Yrotation
                JOINT RightForeArmRoll
                {
                  OFFSET 0 7.79312 0
                  CHANNELS 3 Zrotation Xrotation Yrotation
                  JOINT RightHand
                  {
                    OFFSET 0 15.6391 0
                    CHANNELS 3 Zrotation Xrotation Yrotation
                    End Site
                    {
                      OFFSET 0 0 0
                    }
                  }
                }
              }
            }
          }
        }
        JOINT LeftShoulder
        {
          OFFSET 4.08965 10.4888 -0.569457
          CHANNELS 3 Zrotation Xrotation Yrotation
          JOINT LeftArm
          {
            OFFSET 0 13.757 0
            CHANNELS 3 Zrotation Xrotation Yrotation
            JOINT LeftArmRoll
            {
              OFFSET 0 6.94478 0
              CHANNELS 3 Zrotation Xrotation Yrotation
              JOINT LeftForeArm
              {
                OFFSET 0 20.2277 0
                CHANNELS 3 Zrotation Xrotation Yrotation
                JOINT LeftForeArmRoll
                {
                  OFFSET 0 7.79312 0
                  CHANNELS 3 Zrotation Xrotation Yrotation
                  JOINT LeftHand
                  {
                    OFFSET 0 15.6391 0
                    CHANNELS 3 Zrotation Xrotation Yrotation
                    End Site
                    {
                      OFFSET 0 0 0
                    }
                  }
                }
              }
            }
          }
        }
      }
    }
  }
  JOINT RightUpLeg
  {
    OFFSET -6.91416 -1.26788 -1.06358
    CHANNELS 3 Zrotation Xrotation Yrotation
    JOINT RightUpLegRoll
    {
      OFFSET 0 18.3378 0
      CHANNELS 3 Zrotation Xrotation Yrotation
      JOINT RightLeg
      {
        OFFSET 0 -22.7085 0
        CHANNELS 3 Zrotation Xrotation Yrotation
        JOINT RightLegRoll
        {
          OFFSET 0 22.7828 0
          CHANNELS 3 Zrotation Xrotation Yrotation
          JOINT RightFoot
          {
            OFFSET 0 18.9629 0
            CHANNELS 3 Zrotation Xrotation Yrotation
            JOINT RightToeBase
            {
              OFFSET 0 15.852 0
              CHANNELS 3 Zrotation Xrotation Yrotation
              End Site
              {
                OFFSET 0.00671906 7.67701 -0.884893
              }
            }
          }
        }
      }
    }
  }
  JOINT LeftUpLeg
  {
    OFFSET 6.91416 -1.26788 -1.06358
    CHANNELS 3 Zrotation Xrotation Yrotation
    JOINT LeftUpLegRoll
    {
      OFFSET 0 18.3379 0
      CHANNELS 3 Zrotation Xrotation Yrotation
      JOINT LeftLeg
      {
        OFFSET 0 22.7084 0
        CHANNELS 3 Zrotation Xrotation Yrotation
        JOINT LeftLegRoll
        {
          OFFSET 0 22.9934 0
          CHANNELS 3 Zrotation Xrotation Yrotation
          JOINT LeftFoot
          {
            OFFSET 0 18.7522 0
            CHANNELS 3 Zrotation Xrotation Yrotation
            JOINT LeftToeBase
            {
              OFFSET 0 15.852 0
              CHANNELS 3 Zrotation Xrotation Yrotation
              End Site
              {
                OFFSET -0.030112 7.677 -0.884893
              }
            }
          }
        }
      }
    }
  }
}
MOTION
Frames: 6
Frame Time: 0.00208333
47.1006 91.9291 2.88235 -1.91306 -7.48544 -2.02879 0.349263 0.323986 0.400593 0.693095 4.64158 0.755789 0.68508 6.28653 0.745071 1.81853 15.8996 0.924794 -2.80869 -14.1216 0.816967 83.4506 -4.10642 -4.20865 82.4174 8.55561 8.2913 -4.35856e-006 7.55519e-008 6.56716e-007 16.0047 20.4768 -3.52115 -4.44427e-006 -7.93097e-006 -2.99999 8.02894 -4.95153 0.697746 -65.2073 1.89904 -0.235975 -107.701 4.11465 -11.3722 -1.91865e-008 6.43887e-007 9.76333e-006 -4.94322 17.3101 1.91992 4.52777e-007 1.01408e-006 3.00457 -8.02962 -4.95146 -0.697668 -172.974 2.28048 -2.62981 180 7.01294e-015 178.123 176.81 24.0403 -179.788 4.13338e-007 -2.09623e-006 1.00365 -39.7729 76.4878 34.1415 8.13662 25.2347 -3.48669 -170.417 13.8164 2.22082 4.54188e-006 -4.6773e-006 -0.665036 -2.64262 -11.3127 0.0593082 -1.60941e-006 -3.52245e-006 -0.124448 9.82529 64.6095 -17.5781 -8.13717 25.2427 3.48893 
47.1008 91.9295 2.89095 -1.91363 -7.47853 -2.03496 0.349254 0.322627 0.400652 0.693662 4.63968 0.755344 0.685656 6.28464 0.744611 1.79539 15.8887 0.930681 -2.79434 -14.132 0.81891 83.4485 -4.1066 -4.20857 82.4037 8.53979 8.41124 -4.35856e-006 7.55519e-008 6.56716e-007 15.9616 20.3398 -3.49708 -4.44427e-006 -7.93097e-006 -2.99999 8.02894 -4.95153 0.697746 -65.2207 1.90136 -0.235367 -107.663 4.06721 -11.4279 -1.91865e-008 6.43887e-007 9.76333e-006 -4.9323 17.3001 1.91735 4.52777e-007 1.01408e-006 3.00457 -8.02962 -4.95146 -0.697668 -172.975 2.28241 -2.62906 180 7.01294e-015 178.123 176.809 24.0363 -179.788 4.13338e-007 -2.09623e-006 1.00436 -39.7771 76.4879 34.1451 8.13662 25.2347 -3.48669 -170.413 13.8152 2.21725 4.54188e-006 -4.6773e-006 -0.665036 -2.64243 -11.3017 0.0597026 -1.60941e-006 -3.52245e-006 -0.124062 9.81919 64.5989 -17.5729 -8.13717 25.2427 3.48893 
47.0971 91.9318 2.8962 -1.91419 -7.47149 -2.04101 0.349241 0.321248 0.400683 0.694239 4.63778 0.754804 0.686243 6.28273 0.744054 1.77167 15.8774 0.936752 -2.77933 -14.1424 0.821012 83.4463 -4.10679 -4.2085 82.3903 8.52481 8.5361 -4.35856e-006 7.55519e-008 6.56716e-007 15.9163 20.1996 -3.47246 -4.44427e-006 -7.93097e-006 -2.99999 8.02894 -4.95153 0.697746 -65.2343 1.90338 -0.234593 -107.627 4.01937 -11.4844 -1.91865e-008 6.43887e-007 9.76333e-006 -4.92094 17.2913 1.91478 4.52777e-007 1.01408e-006 3.00457 -8.02962 -4.95146 -0.697668 -172.977 2.28453 -2.6283 180 7.01294e-015 178.123 176.807 24.0322 -179.787 4.13338e-007 -2.09623e-006 1.00511 -39.7807 76.4877 34.1482 8.13662 25.2347 -3.48669 -170.409 13.8138 2.21374 4.54188e-006 -4.6773e-006 -0.665036 -2.6422 -11.2898 0.0601098 -1.60941e-006 -3.52245e-006 -0.123682 9.81297 64.5881 -17.5676 -8.13717 25.2427 3.48893 
47.1026 91.938 2.90024 -1.91474 -7.46435 -2.04696 0.349226 0.319855 0.400695 0.694823 4.63587 0.754198 0.686839 6.28082 0.743431 1.74755 15.8659 0.942952 -2.76384 -14.1526 0.823226 83.444 -4.10699 -4.20842 82.3771 8.51039 8.66441 -4.35856e-006 7.55519e-008 6.56716e-007 15.8694 20.057 -3.44748 -4.44427e-006 -7.93097e-006 -2.99999 8.02894 -4.95153 0.697746 -65.2479 1.90519 -0.233703 -107.59 3.97126 -11.5413 -1.91865e-008 6.43887e-007 9.76333e-006 -4.90928 17.2835 1.91221 4.52777e-007 1.01408e-006 3.00457 -8.02962 -4.95146 -0.697668 -172.979 2.28679 -2.62753 180 7.01294e-015 178.123 176.806 24.0279 -179.787 4.13338e-007 -2.09623e-006 1.00588 -39.7838 76.4874 34.1509 8.13662 25.2347 -3.48669 -170.406 13.8123 2.21028 4.54188e-006 -4.6773e-006 -0.665036 -2.64194 -11.2773 0.0605259 -1.60941e-006 -3.52245e-006 -0.123305 9.80667 64.5771 -17.5621 -8.13717 25.2427 3.48893 
47.1006 91.9391 2.90901 -1.91528 -7.45715 -2.05285 0.349208 0.318453 0.400695 0.695411 4.63395 0.753554 0.687438 6.27891 0.742769 1.72319 15.8541 0.949223 -2.74809 -14.1629 0.825503 83.4416 -4.10719 -4.20834 82.3639 8.49627 8.79467 -4.35856e-006 7.55519e-008 6.56716e-007 15.8217 19.9132 -3.42233 -4.44427e-006 -7.93097e-006 -2.99999 8.02894 -4.95153 0.697746 -65.2615 1.90689 -0.232746 -107.554 3.923 -11.5986 -1.91865e-008 6.43887e-007 9.76333e-006 -4.89744 17.2761 1.90963 4.52777e-007 1.01408e-006 3.00457 -8.02962 -4.95146 -0.697668 -172.98 2.28912 -2.62675 180 7.01294e-015 178.123 176.804 24.0235 -179.786 4.13338e-007 -2.09623e-006 1.00666 -39.7867 76.487 34.1533 8.13662 25.2347 -3.48669 -170.402 13.8107 2.20684 4.54188e-006 -4.6773e-006 -0.665036 -2.64167 -11.2646 0.0609471 -1.60941e-006 -3.52245e-006 -0.12293 9.80033 64.566 -17.5567 -8.13717 25.2427 3.48893 
47.0991 91.9389 2.90959 -1.91582 -7.44995 -2.05874 0.349191 0.317049 0.400693 0.696 4.63204 0.752901 0.688039 6.27699 0.742098 1.69877 15.8424 0.955513 -2.73227 -14.1731 0.827796 83.4392 -4.10739 -4.20826 82.3509 8.4822 8.92543 -4.35856e-006 7.55519e-008 6.56716e-007 15.774 19.769 -3.39719 -4.44427e-006 -7.93097e-006 -2.99999 8.02894 -4.95153 0.697746 -65.2751 1.90856 -0.231774 -107.517 3.87471 -11.6559 -1.91865e-008 6.43887e-007 9.76333e-006 -4.88556 17.2688 1.90706 4.52777e-007 1.01408e-006 3.00457 -8.02962 -4.95146 -0.697668 -172.982 2.29148 -2.62598 180 7.01294e-015 178.123 176.803 24.0192 -179.786 4.13338e-007 -2.09623e-006 1.00745 -39.7895 76.4866 34.1557 8.13662 25.2347 -3.48669 -170.398 13.809 2.20341 4.54188e-006 -4.6773e-006 -0.665036 -2.6414 -11.2517 0.0613696 -1.60941e-006 -3.52245e-006 -0.122556 9.79398 64.5549 -17.5512 -8.13717 25.2427 3.48893 
